<svg width="23" height="15" viewBox="0 0 23 15" fill="none" xmlns="http://www.w3.org/2000/svg">
<path d="M21.9803 6.72276C21.7838 6.45432 17.1009 0.149994 11.12 0.149994C5.13914 0.149994 0.456048 6.45432 0.259723 6.7225C0.0735819 6.97717 0.0735819 7.32257 0.259723 7.57723C0.456048 7.84566 5.13914 14.15 11.12 14.15C17.1009 14.15 21.7838 7.84562 21.9803 7.57744C22.1667 7.32282 22.1667 6.97716 21.9803 6.72276ZM11.12 12.7017C6.71446 12.7017 2.89879 8.51742 1.76926 7.1495C2.89732 5.78039 6.70501 1.59826 11.12 1.59826C15.5254 1.59826 19.3408 5.78184 20.4708 7.15049C19.3427 8.51956 15.535 12.7017 11.12 12.7017Z" fill="#F9B666"/>
<path d="M11.12 2.80525C8.72052 2.80525 6.76831 4.75439 6.76831 7.15009C6.76831 9.5458 8.72052 11.4949 11.12 11.4949C13.5195 11.4949 15.4717 9.5458 15.4717 7.15009C15.4717 4.75439 13.5195 2.80525 11.12 2.80525ZM11.12 10.0466C9.52025 10.0466 8.2189 8.74727 8.2189 7.15009C8.2189 5.55291 9.52029 4.25356 11.12 4.25356C12.7197 4.25356 14.0211 5.55291 14.0211 7.15009C14.0211 8.74727 12.7197 10.0466 11.12 10.0466Z" fill="#F9B666"/>
</svg>
