<svg width="22" height="12" viewBox="0 0 22 12" fill="none" xmlns="http://www.w3.org/2000/svg">
<path fill-rule="evenodd" clip-rule="evenodd" d="M1.90117 0.529835C1.55762 0.0974127 0.928566 0.0253705 0.496144 0.368924C0.0637213 0.712478 -0.00832091 1.34153 0.335233 1.77395C0.615044 2.12615 1.33319 2.99112 2.37843 3.96648L0.794703 5.19607C0.358462 5.53476 0.279383 6.16297 0.618075 6.59921C0.956767 7.03545 1.58497 7.11453 2.02121 6.77584L3.94085 5.28546C4.451 5.6722 5.01181 6.05538 5.61588 6.40661L4.3724 8.58269C4.09839 9.06221 4.26499 9.67307 4.7445 9.94707C5.22402 10.2211 5.83488 10.0545 6.10888 9.57497L7.41757 7.28478C8.23046 7.6043 9.09551 7.83986 10 7.94268V10.5C10 11.0523 10.4477 11.5 11 11.5C11.5523 11.5 12 11.0523 12 10.5V7.94268C12.9044 7.83987 13.7694 7.60433 14.5823 7.28485L15.8911 9.5754C16.1652 10.0549 16.776 10.2215 17.2555 9.94751C17.735 9.6735 17.9016 9.06264 17.6276 8.58312L16.384 6.40671C17.0226 6.0354 17.6128 5.6284 18.146 5.21921C18.1481 5.21761 18.1502 5.216 18.1523 5.21439L20.1634 6.77584C20.5997 7.11453 21.2279 7.03545 21.5666 6.59921C21.9053 6.16297 21.8262 5.53476 21.39 5.19607L19.7052 3.88804C20.7051 2.94497 21.3925 2.11667 21.6648 1.77395C22.0083 1.34153 21.9363 0.712478 21.5039 0.368924C21.0714 0.0253705 20.4424 0.0974127 20.0988 0.529835C19.7541 0.963734 18.5911 2.35653 16.9284 3.6326C15.2507 4.9201 13.1801 5.99983 11 5.99983C8.8199 5.99983 6.74928 4.9201 5.07165 3.6326C3.40891 2.35653 2.2459 0.963734 1.90117 0.529835Z" fill="#F9B666"/>
</svg>
