<svg width="30" height="31" viewBox="0 0 30 31" fill="none" xmlns="http://www.w3.org/2000/svg">
<path d="M22.6451 30.4141C22.4134 30.4151 22.1849 30.3556 21.9787 30.2405L14.5898 26.0267L7.20099 30.2405C6.96106 30.378 6.69055 30.4393 6.4202 30.4176C6.14986 30.3959 5.89053 30.292 5.67169 30.1177C5.45285 29.9435 5.28328 29.7058 5.18227 29.4318C5.08125 29.1578 5.05283 28.8584 5.10024 28.5676L6.54904 19.6824L0.580011 13.3696C0.393779 13.1671 0.26167 12.9133 0.197859 12.6352C0.134049 12.3572 0.140947 12.0655 0.217813 11.7914C0.301784 11.5109 0.456249 11.2617 0.663679 11.072C0.871108 10.8823 1.1232 10.7597 1.39133 10.7182L9.64945 9.40831L13.2859 1.31215C13.4046 1.04532 13.5898 0.820295 13.8204 0.66284C14.051 0.505386 14.3177 0.421875 14.5898 0.421875C14.862 0.421875 15.1287 0.505386 15.3593 0.66284C15.5899 0.820295 15.7751 1.04532 15.8937 1.31215L19.5737 9.39253L27.8318 10.7024C28.0999 10.7439 28.352 10.8665 28.5595 11.0562C28.7669 11.2459 28.9213 11.4951 29.0053 11.7756C29.0822 12.0497 29.0891 12.3414 29.0253 12.6195C28.9615 12.8975 28.8294 13.1514 28.6431 13.3538L22.6741 19.6666L24.1229 28.5519C24.1746 28.8477 24.1475 29.1535 24.0448 29.4332C23.9422 29.7129 23.7681 29.9547 23.5434 30.1301C23.281 30.3303 22.9651 30.4302 22.6451 30.4141Z" fill="#D6D6D6"/>
</svg>
