<svg width="23" height="31" viewBox="0 0 23 31" fill="none" xmlns="http://www.w3.org/2000/svg">
<path d="M1.67648 30.4219C1.40042 30.421 1.12923 30.3464 0.88905 30.2052C0.640821 30.0605 0.434124 29.85 0.290117 29.5952C0.146111 29.3404 0.0699649 29.0505 0.0694742 28.7552V4.30521C0.0477501 3.30574 0.406669 2.33765 1.06845 1.61075C1.73022 0.883848 2.64154 0.456699 3.6049 0.421875H19.0322C19.9955 0.456699 20.9069 0.883848 21.5686 1.61075C22.2304 2.33765 22.5893 3.30574 22.5676 4.30521V28.7552C22.5659 29.0461 22.4909 29.3314 22.3499 29.5828C22.2089 29.8343 22.007 30.0431 21.7641 30.1885C21.5198 30.3348 21.2427 30.4118 20.9606 30.4118C20.6785 30.4118 20.4014 30.3348 20.1571 30.1885L11.0454 24.8385L2.47999 30.1719C2.23822 30.3275 1.96094 30.4138 1.67648 30.4219V30.4219Z" fill="#D6D6D6"/>
</svg>
