<svg width="30" height="31" viewBox="0 0 30 31" fill="none" xmlns="http://www.w3.org/2000/svg">
<mask id="mask0_326_374" style="mask-type:alpha" maskUnits="userSpaceOnUse" x="0" y="0" width="30" height="31">
<circle cx="15" cy="15.4219" r="15" fill="#F9B666"/>
</mask>
<g mask="url(#mask0_326_374)">
<path d="M15.1628 14.105C16.5159 14.105 17.8386 13.7037 18.9637 12.952C20.0888 12.2002 20.9657 11.1317 21.4835 9.88158C22.0013 8.63145 22.1368 7.25584 21.8728 5.92871C21.6089 4.60158 20.9573 3.38253 20.0005 2.42572C19.0437 1.46891 17.8246 0.817319 16.4975 0.553337C15.1703 0.289354 13.7947 0.424839 12.5446 0.94266C11.2945 1.46048 10.226 2.33738 9.47421 3.46247C8.72245 4.58756 8.3212 5.9103 8.3212 7.26343C8.3212 9.07793 9.042 10.8181 10.325 12.1011C11.6081 13.3842 13.3483 14.105 15.1628 14.105Z" fill="#D6D6D6"/>
<path d="M24.8821 30.8286C25.3285 30.8286 25.7567 30.6484 26.0723 30.3277C26.388 30.0069 26.5654 29.5719 26.5654 29.1182C26.5654 25.9429 25.324 22.8976 23.1143 20.6522C20.9046 18.4069 17.9076 17.1455 14.7827 17.1455C11.6577 17.1455 8.66075 18.4069 6.45107 20.6522C4.24139 22.8976 3 25.9429 3 29.1182C3 29.5719 3.17734 30.0069 3.49301 30.3277C3.80868 30.6484 4.23682 30.8286 4.68324 30.8286H24.8821Z" fill="#D6D6D6"/>
</g>
</svg>
