<svg width="31" height="34" viewBox="0 0 31 34" fill="none" xmlns="http://www.w3.org/2000/svg">
<mask id="mask0_326_362" style="mask-type:alpha" maskUnits="userSpaceOnUse" x="8" y="0" width="16" height="22">
<rect x="8.74948" y="0.921875" width="14.5294" height="20.2904" fill="#D6D6D6" stroke="#D6D6D6"/>
</mask>
<g mask="url(#mask0_326_362)">
<path d="M23.2789 -1.02971C23.2789 5.21052 22.4146 10.8389 21.0315 14.8898C20.3392 16.9177 19.526 18.5229 18.6475 19.6111C17.7656 20.7036 16.8726 21.2123 16.0142 21.2123C15.1559 21.2123 14.2629 20.7036 13.3809 19.6111C12.5025 18.5229 11.6893 16.9177 10.9969 14.8898C9.61387 10.8389 8.74953 5.21052 8.74953 -1.02971C8.74953 -7.26994 9.61387 -12.8983 10.9969 -16.9492C11.6893 -18.9771 12.5025 -20.5823 13.3809 -21.6705C14.2629 -22.7631 15.1559 -23.2717 16.0142 -23.2717C16.8726 -23.2717 17.7656 -22.7631 18.6475 -21.6705C19.526 -20.5823 20.3392 -18.9771 21.0315 -16.9492C22.4146 -12.8983 23.2789 -7.26994 23.2789 -1.02971Z" fill="#D6D6D6" stroke="#D6D6D6"/>
</g>
<mask id="mask1_326_362" style="mask-type:alpha" maskUnits="userSpaceOnUse" x="0" y="4" width="31" height="12">
<rect x="3.33771" y="7.03467" width="25" height="5.96778" fill="#C4C4C4" stroke="#D6D6D6" stroke-width="5"/>
</mask>
<g mask="url(#mask1_326_362)">
<path d="M29.3377 4.53492C29.3377 6.969 27.9915 9.30085 25.559 11.0795C23.1275 12.8573 19.6954 14.0027 15.8377 14.0027C11.98 14.0027 8.54789 12.8573 6.11647 11.0795C3.68396 9.30085 2.33772 6.969 2.33772 4.53492C2.33772 2.10084 3.68396 -0.231013 6.11647 -2.00963C8.54789 -3.78744 11.98 -4.93286 15.8377 -4.93286C19.6954 -4.93286 23.1275 -3.78744 25.559 -2.00963C27.9915 -0.231013 29.3377 2.10084 29.3377 4.53492Z" stroke="#D6D6D6" stroke-width="3"/>
</g>
<line x1="2.33771" y1="4.36548" x2="29.3377" y2="4.36548" stroke="#D6D6D6" stroke-width="3" stroke-linecap="round"/>
<line x1="16.5142" y1="21.0671" x2="16.5142" y2="26.8736" stroke="#D6D6D6"/>
<line x1="15.5142" y1="26.8735" x2="15.5142" y2="21.0671" stroke="#D6D6D6"/>
<path d="M16.6429 24.4629L21.9512 27.6334C23.2587 28.4143 22.705 30.4211 21.1821 30.4211H10.5655C9.04253 30.4211 8.48883 28.4143 9.79631 27.6333L15.1046 24.4629C15.5784 24.18 16.1692 24.18 16.6429 24.4629Z" fill="#D6D6D6" stroke="#D6D6D6"/>
</svg>