<svg width="45" height="43" viewBox="0 0 45 43" fill="none" xmlns="http://www.w3.org/2000/svg">
<mask id="mask0_275_1211" style="mask-type:alpha" maskUnits="userSpaceOnUse" x="0" y="0" width="45" height="43">
<ellipse cx="22.6351" cy="21.5" rx="22.2748" ry="21.5" fill="#F9B666"/>
</mask>
<g mask="url(#mask0_275_1211)">
<path d="M23.1532 28C24.9974 28 26.8001 27.4722 28.3335 26.4832C29.8669 25.4943 31.062 24.0887 31.7677 22.4442C32.4735 20.7996 32.6581 18.99 32.2983 17.2442C31.9386 15.4984 31.0505 13.8947 29.7465 12.636C28.4424 11.3774 26.781 10.5202 24.9723 10.1729C23.1635 9.82567 21.2887 10.0039 19.5849 10.6851C17.8811 11.3663 16.4249 12.5198 15.4003 13.9999C14.3757 15.4799 13.8289 17.22 13.8289 19C13.8289 21.387 14.8112 23.6761 16.5599 25.364C18.3085 27.0518 20.6802 28 23.1532 28Z" fill="#D5D5D5"/>
<path d="M36.3996 50C37.008 50 37.5915 49.7629 38.0217 49.341C38.452 48.919 38.6937 48.3467 38.6937 47.75C38.6937 43.5728 37.0018 39.5668 33.9902 36.6131C30.9786 33.6594 26.8941 32 22.6351 32C18.3761 32 14.2915 33.6594 11.28 36.6131C8.26842 39.5668 6.57654 43.5728 6.57654 47.75C6.57654 48.3467 6.81824 48.919 7.24846 49.341C7.67868 49.7629 8.26219 50 8.87062 50H36.3996Z" fill="#D5D5D5"/>
</g>
</svg>
