<svg width="17" height="17" viewBox="0 0 17 17" fill="none" xmlns="http://www.w3.org/2000/svg">
<path d="M13.0896 16.2956C12.9566 16.2961 12.8254 16.2653 12.707 16.2058L8.4649 14.0269L4.22277 16.2058C4.08502 16.2768 3.92971 16.3086 3.77449 16.2973C3.61928 16.2861 3.47039 16.2324 3.34475 16.1423C3.21911 16.0522 3.12176 15.9293 3.06376 15.7876C3.00576 15.6459 2.98945 15.4911 3.01667 15.3407L3.84846 10.7463L0.421484 7.48199C0.314564 7.37731 0.238717 7.24604 0.202081 7.10227C0.165446 6.9585 0.169406 6.80765 0.213537 6.66592C0.261747 6.52089 0.35043 6.39201 0.469521 6.29393C0.588611 6.19584 0.733341 6.13246 0.887287 6.111L5.62849 5.43366L7.71628 1.24722C7.7844 1.10924 7.89074 0.992884 8.02314 0.911466C8.15554 0.830048 8.30864 0.786865 8.4649 0.786865C8.62115 0.786865 8.77425 0.830048 8.90665 0.911466C9.03905 0.992884 9.1454 1.10924 9.21351 1.24722L11.3263 5.4255L16.0675 6.10284C16.2214 6.1243 16.3661 6.18768 16.4852 6.28577C16.6043 6.38385 16.693 6.51273 16.7412 6.65776C16.7853 6.79949 16.7893 6.95034 16.7527 7.09411C16.716 7.23788 16.6402 7.36915 16.5333 7.47383L13.1063 10.7381L13.9381 15.3326C13.9678 15.4856 13.9522 15.6437 13.8933 15.7883C13.8343 15.9329 13.7344 16.058 13.6054 16.1487C13.4547 16.2522 13.2734 16.3039 13.0896 16.2956Z" fill="#F79705"/>
</svg>
