<svg width="44" height="49" viewBox="0 0 44 49" fill="none" xmlns="http://www.w3.org/2000/svg">
<g filter="url(#filter0_d_188_824)">
<path d="M9.65503 13.5498V11.8935C9.65503 5.50176 15.1932 0.299316 22.0014 0.299316C28.8096 0.299316 34.3478 5.50176 34.3478 11.8934V13.5497C37.2651 13.5497 39.6392 15.7791 39.6392 18.5186V35.0817C39.6392 37.8212 37.2651 40.0506 34.3478 40.0506H9.65495C6.73769 40.0506 4.36362 37.8212 4.36362 35.0817V18.5187C4.3637 15.7791 6.73769 13.5498 9.65503 13.5498ZM30.8203 11.8934C30.8203 7.32698 26.8642 3.61187 22.0014 3.61187C17.1387 3.61187 13.1825 7.32698 13.1825 11.8934V13.5497H30.8203V11.8934ZM7.8912 35.0817C7.8912 35.996 8.68316 36.738 9.65495 36.738H34.3478C35.3197 36.738 36.1116 35.996 36.1116 35.0817V18.5187C36.1116 17.6044 35.3196 16.8624 34.3478 16.8624H9.65495C8.68308 16.8624 7.8912 17.6044 7.8912 18.5187V35.0817Z" fill="white"/>
</g>
<defs>
<filter id="filter0_d_188_824" x="0.363647" y="0.299316" width="43.2755" height="47.7512" filterUnits="userSpaceOnUse" color-interpolation-filters="sRGB">
<feFlood flood-opacity="0" result="BackgroundImageFix"/>
<feColorMatrix in="SourceAlpha" type="matrix" values="0 0 0 0 0 0 0 0 0 0 0 0 0 0 0 0 0 0 127 0" result="hardAlpha"/>
<feOffset dy="4"/>
<feGaussianBlur stdDeviation="2"/>
<feComposite in2="hardAlpha" operator="out"/>
<feColorMatrix type="matrix" values="0 0 0 0 0 0 0 0 0 0 0 0 0 0 0 0 0 0 0.25 0"/>
<feBlend mode="normal" in2="BackgroundImageFix" result="effect1_dropShadow_188_824"/>
<feBlend mode="normal" in="SourceGraphic" in2="effect1_dropShadow_188_824" result="shape"/>
</filter>
</defs>
</svg>
